<svg width="108" height="20" viewBox="0 0 108 20" fill="none" xmlns="http://www.w3.org/2000/svg">
<path d="M5.55029 10.1986C5.55029 10.1986 27.2743 10.2017 53.5625 10.2017C79.8507 10.2017 101.603 10.1986 101.603 10.1986" stroke="url(#paint0_linear_784_288)" stroke-width="1.5" stroke-dasharray="2 2"/>
<circle cx="4.5" cy="10.5" r="4.5" fill="white"/>
<circle cx="103.008" cy="10.5" r="4.5" fill="white"/>
<g clip-path="url(#clip0_784_288)">
<path d="M60.1855 8.56615C61.0027 8.55293 61.6724 9.21178 61.6724 10.0291C61.6724 10.8241 61.0376 11.4736 60.2429 11.4919L57.8725 11.5465C57.6867 11.5508 57.5938 11.5529 57.5101 11.5806C57.4361 11.6051 57.3677 11.6441 57.3088 11.6952C57.2424 11.753 57.1931 11.8318 57.0946 11.9894L54.6945 15.8294C54.5934 15.9912 54.5429 16.072 54.4744 16.1307C54.4138 16.1827 54.3433 16.2217 54.2671 16.2456C54.1811 16.2726 54.0857 16.2726 53.8949 16.2726L53.5859 16.2726C53.0808 16.2726 52.8282 16.2726 52.6761 16.1662C52.5432 16.0733 52.4545 15.9297 52.4308 15.7694C52.4037 15.5858 52.5167 15.3598 52.7426 14.908L54.4175 11.5582L51.6295 11.5582C51.4631 11.5582 51.3799 11.5582 51.3031 11.5794C51.235 11.5981 51.1709 11.629 51.1137 11.6704C51.0492 11.7172 50.9972 11.7821 50.8932 11.9121L50.2808 12.6776C50.1768 12.8075 50.1249 12.8725 50.0603 12.9193C50.0032 12.9607 49.939 12.9915 49.871 13.0103C49.7942 13.0315 49.7109 13.0315 49.5445 13.0315L49.3799 13.0315C48.9857 13.0315 48.7885 13.0315 48.6505 12.9505C48.5294 12.8794 48.4376 12.7675 48.3917 12.6348C48.3394 12.4836 48.378 12.2903 48.4553 11.9037L48.7821 10.2699C48.7959 10.2008 48.8028 10.1663 48.8056 10.1315C48.808 10.1005 48.808 10.0695 48.8056 10.0385C48.8028 10.0037 48.7959 9.96916 48.7821 9.90009L48.4553 8.26633C48.378 7.87975 48.3394 7.68645 48.3917 7.53518C48.4376 7.4025 48.5294 7.29057 48.6505 7.21954C48.7885 7.13855 48.9857 7.13855 49.3799 7.13855L49.5445 7.13855C49.7109 7.13855 49.7942 7.13855 49.871 7.15972C49.939 7.17847 50.0032 7.20929 50.0603 7.25072C50.1249 7.29749 50.1768 7.36247 50.2808 7.49242L50.8932 8.25792C50.9972 8.38787 51.0492 8.45284 51.1137 8.49961C51.1709 8.54104 51.235 8.57187 51.3031 8.59062C51.3799 8.61178 51.4631 8.61178 51.6295 8.61178H54.4175L52.7426 5.26198C52.5167 4.81016 52.4037 4.58425 52.4308 4.40062C52.4545 4.24026 52.5432 4.09675 52.6761 4.00385C52.8282 3.89746 53.0808 3.89746 53.5859 3.89746H53.8949C54.0857 3.89746 54.1811 3.89746 54.2671 3.92442C54.3433 3.94828 54.4138 3.98736 54.4744 4.03929C54.5429 4.09796 54.5934 4.17884 54.6945 4.3406L57.0855 8.16603C57.1849 8.32499 57.2345 8.40447 57.3013 8.46238C57.3658 8.5183 57.4417 8.55954 57.5236 8.58326C57.6086 8.60783 57.7023 8.60631 57.8897 8.60328L60.1855 8.56615Z" fill="white"/>
</g>
<defs>
<linearGradient id="paint0_linear_784_288" x1="-50.2466" y1="-2.87285" x2="158.253" y2="-2.87716" gradientUnits="userSpaceOnUse">
<stop stop-color="#F3530F"/>
<stop offset="0.489583" stop-color="white"/>
<stop offset="1" stop-color="#F3530F" stop-opacity="0"/>
</linearGradient>
<clipPath id="clip0_784_288">
<rect width="14.1432" height="14.1432" fill="white" transform="matrix(0.70712 0.707094 -0.70712 0.707094 53.9631 0)"/>
</clipPath>
</defs>
</svg>
