<svg width="101" height="26" viewBox="0 0 101 26" fill="none" xmlns="http://www.w3.org/2000/svg">
<path d="M4.76587 21.93C4.76587 21.93 25.2738 9.53552 50.0741 9.53552C74.8744 9.53552 95.3824 21.93 95.3824 21.93" stroke="url(#paint0_linear_783_492)" stroke-width="1.5" stroke-dasharray="2 2"/>
<path d="M3.81445 19.1158C5.36864 19.116 6.62891 20.3763 6.62891 21.9303C6.62867 23.4841 5.36849 24.7436 3.81445 24.7438C2.2603 24.7438 1.00023 23.4842 1 21.9303C1 20.3762 2.26016 19.1158 3.81445 19.1158Z" fill="white" stroke="black" stroke-width="2"/>
<path d="M96.3022 19.1161C97.8564 19.1162 99.1167 20.3765 99.1167 21.9305C99.1165 23.4844 97.8563 24.7439 96.3022 24.744C94.7481 24.744 93.488 23.4844 93.4878 21.9305C93.4878 20.3764 94.748 19.1161 96.3022 19.1161Z" fill="white" stroke="black" stroke-width="2"/>
<g clip-path="url(#clip0_783_492)">
<path d="M55.4687 8.08523C56.2401 8.07276 56.8722 8.69461 56.8722 9.46605C56.8722 10.2164 56.2731 10.8294 55.5229 10.8467L53.2855 10.8983C53.1101 10.9023 53.0224 10.9043 52.9435 10.9305C52.8736 10.9536 52.809 10.9904 52.7535 11.0386C52.6907 11.0932 52.6442 11.1675 52.5513 11.3163L50.2858 14.9407C50.1904 15.0933 50.1427 15.1697 50.0781 15.2251C50.0209 15.2741 49.9543 15.311 49.8824 15.3335C49.8012 15.3589 49.7112 15.3589 49.5311 15.3589L49.2394 15.3589C48.7626 15.3589 48.5242 15.3589 48.3806 15.2585C48.2552 15.1708 48.1715 15.0354 48.1492 14.884C48.1235 14.7107 48.2302 14.4975 48.4434 14.071L50.0244 10.9093L47.3928 10.9093C47.2357 10.9093 47.1572 10.9093 47.0846 10.9293C47.0204 10.947 46.9599 10.9761 46.9059 11.0152C46.845 11.0593 46.7959 11.1207 46.6978 11.2433L46.1197 11.9658C46.0216 12.0885 45.9725 12.1498 45.9116 12.1939C45.8577 12.233 45.7972 12.2621 45.7329 12.2798C45.6604 12.2998 45.5819 12.2998 45.4248 12.2998L45.2694 12.2998C44.8973 12.2998 44.7112 12.2998 44.5809 12.2234C44.4666 12.1563 44.3799 12.0507 44.3366 11.9255C44.2872 11.7827 44.3237 11.6002 44.3967 11.2354L44.7051 9.69334C44.7182 9.62815 44.7247 9.59555 44.7273 9.56268C44.7296 9.53348 44.7296 9.50414 44.7273 9.47494C44.7247 9.44206 44.7182 9.40947 44.7051 9.34428L44.3967 7.80225C44.3237 7.43737 44.2872 7.25494 44.3366 7.11216C44.3799 6.98693 44.4666 6.88128 44.5809 6.81424C44.7112 6.7378 44.8973 6.7378 45.2694 6.7378L45.4248 6.7378C45.5819 6.7378 45.6604 6.7378 45.7329 6.75778C45.7972 6.77547 45.8577 6.80457 45.9116 6.84367C45.9725 6.88781 46.0216 6.94914 46.1197 7.07179L46.6978 7.79431C46.7959 7.91696 46.845 7.97829 46.9059 8.02243C46.9599 8.06154 47.0204 8.09063 47.0846 8.10833C47.1572 8.1283 47.2357 8.1283 47.3928 8.1283L50.0244 8.1283L48.4434 4.9666C48.2302 4.54015 48.1235 4.32692 48.1492 4.1536C48.1715 4.00225 48.2552 3.8668 48.3806 3.77911C48.5242 3.67869 48.7626 3.67869 49.2394 3.67869H49.5311C49.7112 3.67869 49.8012 3.67869 49.8824 3.70414C49.9543 3.72666 50.0209 3.76355 50.0781 3.81256C50.1427 3.86794 50.1904 3.94428 50.2858 4.09696L52.5427 7.70758C52.6364 7.85761 52.6833 7.93263 52.7464 7.98729C52.8072 8.04007 52.8788 8.079 52.9562 8.10139C53.0364 8.12457 53.1248 8.12314 53.3018 8.12028L55.4687 8.08523Z" fill="black" stroke="white" stroke-linecap="round" stroke-linejoin="round"/>
</g>
<defs>
<linearGradient id="paint0_linear_783_492" x1="-3.24483" y1="9.53552" x2="103.394" y2="9.53332" gradientUnits="userSpaceOnUse">
<stop stop-color="white" stop-opacity="0"/>
<stop offset="0.489583" stop-color="#F3530F"/>
<stop offset="1" stop-color="white" stop-opacity="0"/>
</linearGradient>
<clipPath id="clip0_783_492">
<rect width="13.3494" height="13.3494" fill="white" transform="matrix(0.707137 0.707077 -0.707137 0.707077 49.5955 0)"/>
</clipPath>
</defs>
</svg>
