<svg width="21" height="22" viewBox="0 0 21 22" fill="none" xmlns="http://www.w3.org/2000/svg">
<g clip-path="url(#clip0_783_416)">
<path d="M3.5 6.625C3.5 6.16087 3.68437 5.71575 4.01256 5.38756C4.34075 5.05937 4.78587 4.875 5.25 4.875H15.75C16.2141 4.875 16.6592 5.05937 16.9874 5.38756C17.3156 5.71575 17.5 6.16087 17.5 6.625V17.125C17.5 17.5891 17.3156 18.0342 16.9874 18.3624C16.6592 18.6906 16.2141 18.875 15.75 18.875H5.25C4.78587 18.875 4.34075 18.6906 4.01256 18.3624C3.68437 18.0342 3.5 17.5891 3.5 17.125V6.625Z" stroke="#242424" stroke-width="1.3" stroke-linecap="round" stroke-linejoin="round"/>
<path d="M14 3.125V6.625" stroke="#242424" stroke-width="1.3" stroke-linecap="round" stroke-linejoin="round"/>
<path d="M7 3.125V6.625" stroke="#242424" stroke-width="1.3" stroke-linecap="round" stroke-linejoin="round"/>
<path d="M3.5 10.125H17.5" stroke="#242424" stroke-width="1.3" stroke-linecap="round" stroke-linejoin="round"/>
<path d="M6.125 12.75H6.13692" stroke="#242424" stroke-width="1.3" stroke-linecap="round" stroke-linejoin="round"/>
<path d="M8.75879 12.75H8.76479" stroke="#242424" stroke-width="1.3" stroke-linecap="round" stroke-linejoin="round"/>
<path d="M11.3838 12.75H11.3898" stroke="#242424" stroke-width="1.3" stroke-linecap="round" stroke-linejoin="round"/>
<path d="M14.0132 12.75H14.0192" stroke="#242424" stroke-width="1.3" stroke-linecap="round" stroke-linejoin="round"/>
<path d="M11.3882 15.375H11.3942" stroke="#242424" stroke-width="1.3" stroke-linecap="round" stroke-linejoin="round"/>
<path d="M6.13379 15.375H6.13879" stroke="#242424" stroke-width="1.3" stroke-linecap="round" stroke-linejoin="round"/>
<path d="M8.75879 15.375H8.76479" stroke="#242424" stroke-width="1.3" stroke-linecap="round" stroke-linejoin="round"/>
</g>
<defs>
<clipPath id="clip0_783_416">
<rect width="21" height="21" fill="white" transform="translate(0 0.5)"/>
</clipPath>
</defs>
</svg>
