<svg width="48" height="52" viewBox="0 0 48 52" fill="none" xmlns="http://www.w3.org/2000/svg">
<path d="M18.5455 8.66667H29.4545C29.4545 7.23008 28.8799 5.85233 27.8569 4.8365C26.834 3.82068 25.4466 3.25 24 3.25C22.5534 3.25 21.166 3.82068 20.1431 4.8365C19.1201 5.85233 18.5455 7.23008 18.5455 8.66667ZM15.2727 8.66667C15.2727 6.36812 16.1922 4.16372 17.8289 2.53841C19.4656 0.913093 21.6854 0 24 0C26.3146 0 28.5344 0.913093 30.1711 2.53841C31.8078 4.16372 32.7273 6.36812 32.7273 8.66667H46.3636C46.7976 8.66667 47.2138 8.83787 47.5207 9.14262C47.8276 9.44736 48 9.86069 48 10.2917C48 10.7226 47.8276 11.136 47.5207 11.4407C47.2138 11.7455 46.7976 11.9167 46.3636 11.9167H43.5055L40.8502 43.5565C40.657 45.8582 39.5998 48.0038 37.8884 49.5677C36.1769 51.1317 33.936 51.9998 31.6102 52H16.3898C14.064 51.9998 11.8231 51.1317 10.1116 49.5677C8.40015 48.0038 7.343 45.8582 7.14982 43.5565L4.49455 11.9167H1.63636C1.20237 11.9167 0.786157 11.7455 0.47928 11.4407C0.172402 11.136 0 10.7226 0 10.2917C0 9.86069 0.172402 9.44736 0.47928 9.14262C0.786157 8.83787 1.20237 8.66667 1.63636 8.66667H15.2727ZM20.7273 21.125C20.7273 20.694 20.5549 20.2807 20.248 19.976C19.9411 19.6712 19.5249 19.5 19.0909 19.5C18.6569 19.5 18.2407 19.6712 17.9338 19.976C17.6269 20.2807 17.4545 20.694 17.4545 21.125V39.5417C17.4545 39.9726 17.6269 40.386 17.9338 40.6907C18.2407 40.9955 18.6569 41.1667 19.0909 41.1667C19.5249 41.1667 19.9411 40.9955 20.248 40.6907C20.5549 40.386 20.7273 39.9726 20.7273 39.5417V21.125ZM28.9091 19.5C28.4751 19.5 28.0589 19.6712 27.752 19.976C27.4451 20.2807 27.2727 20.694 27.2727 21.125V39.5417C27.2727 39.9726 27.4451 40.386 27.752 40.6907C28.0589 40.9955 28.4751 41.1667 28.9091 41.1667C29.3431 41.1667 29.7593 40.9955 30.0662 40.6907C30.3731 40.386 30.5455 39.9726 30.5455 39.5417V21.125C30.5455 20.694 30.3731 20.2807 30.0662 19.976C29.7593 19.6712 29.3431 19.5 28.9091 19.5Z" fill="#F3530F"/>
</svg>
