<svg width="20" height="20" viewBox="0 0 20 20" fill="none" xmlns="http://www.w3.org/2000/svg">
<path d="M1.875 16.875H13.125" stroke="#242424" stroke-width="1.5" stroke-linecap="round" stroke-linejoin="round"/>
<path d="M1.32022 10.9687L4.26553 13.7265C4.65826 14.0947 5.15932 14.3262 5.6942 14.3867C6.22909 14.4473 6.76922 14.3335 7.23428 14.0625L19.0624 7.18746L17.6093 5.40621C17.2313 4.94454 16.7006 4.6333 16.1132 4.5287C15.5257 4.42411 14.9203 4.53307 14.4062 4.8359L10.9374 6.87496L6.24991 5.31246L4.96084 5.86715C4.8644 5.90848 4.77992 5.97342 4.71518 6.05599C4.65044 6.13856 4.60753 6.2361 4.59041 6.33962C4.57329 6.44313 4.5825 6.5493 4.6172 6.64832C4.6519 6.74733 4.71097 6.83602 4.78897 6.90621L7.18741 9.06246L4.99991 10.3125L2.81241 9.37496L1.49991 9.93746C1.40442 9.97848 1.32066 10.0427 1.25623 10.1242C1.19179 10.2057 1.1487 10.3021 1.13086 10.4044C1.11302 10.5068 1.12099 10.612 1.15406 10.7106C1.18712 10.8091 1.24423 10.8978 1.32022 10.9687Z" stroke="#242424" stroke-width="1.5" stroke-linecap="round" stroke-linejoin="round"/>
</svg>
