<svg width="16" height="16" viewBox="0 0 16 16" fill="none" xmlns="http://www.w3.org/2000/svg">
<g clip-path="url(#clip0_784_1858)">
<path d="M2 4.66663C2 4.13619 2.21071 3.62749 2.58579 3.25241C2.96086 2.87734 3.46957 2.66663 4 2.66663H12C12.5304 2.66663 13.0391 2.87734 13.4142 3.25241C13.7893 3.62749 14 4.13619 14 4.66663V11.3333C14 11.8637 13.7893 12.3724 13.4142 12.7475C13.0391 13.1226 12.5304 13.3333 12 13.3333H4C3.46957 13.3333 2.96086 13.1226 2.58579 12.7475C2.21071 12.3724 2 11.8637 2 11.3333V4.66663Z" stroke="#878787" stroke-linecap="round" stroke-linejoin="round"/>
<path d="M4.66675 6.66671C4.66675 7.02033 4.80722 7.35947 5.05727 7.60952C5.30732 7.85956 5.64646 8.00004 6.00008 8.00004C6.3537 8.00004 6.69284 7.85956 6.94289 7.60952C7.19294 7.35947 7.33341 7.02033 7.33341 6.66671C7.33341 6.31309 7.19294 5.97395 6.94289 5.7239C6.69284 5.47385 6.3537 5.33337 6.00008 5.33337C5.64646 5.33337 5.30732 5.47385 5.05727 5.7239C4.80722 5.97395 4.66675 6.31309 4.66675 6.66671Z" stroke="#878787" stroke-linecap="round" stroke-linejoin="round"/>
<path d="M10 5.33337H11.3333" stroke="#878787" stroke-linecap="round" stroke-linejoin="round"/>
<path d="M10 8H11.3333" stroke="#878787" stroke-linecap="round" stroke-linejoin="round"/>
<path d="M4.66675 10.6666H11.3334" stroke="#878787" stroke-linecap="round" stroke-linejoin="round"/>
</g>
<defs>
<clipPath id="clip0_784_1858">
<rect width="16" height="16" fill="white"/>
</clipPath>
</defs>
</svg>
