<svg width="16" height="17" viewBox="0 0 16 17" fill="none" xmlns="http://www.w3.org/2000/svg">
<path d="M8 0C9.06087 0 10.0783 0.447766 10.8284 1.2448C11.5786 2.04183 12 3.12283 12 4.25C12 5.37717 11.5786 6.45817 10.8284 7.2552C10.0783 8.05223 9.06087 8.5 8 8.5C6.93913 8.5 5.92172 8.05223 5.17157 7.2552C4.42143 6.45817 4 5.37717 4 4.25C4 3.12283 4.42143 2.04183 5.17157 1.2448C5.92172 0.447766 6.93913 0 8 0ZM8 10.625C12.42 10.625 16 12.5269 16 14.875V17H0V14.875C0 12.5269 3.58 10.625 8 10.625Z" fill="url(#paint0_linear_783_202)"/>
<defs>
<linearGradient id="paint0_linear_783_202" x1="8" y1="0" x2="8" y2="17" gradientUnits="userSpaceOnUse">
<stop stop-color="#F3530F"/>
<stop offset="1" stop-color="#772E0E"/>
</linearGradient>
</defs>
</svg>
