<svg width="24" height="20" viewBox="0 0 24 20" fill="none" xmlns="http://www.w3.org/2000/svg">
<g opacity="0.5">
<path d="M2.4025 13.708C1.4675 12.466 1 11.8439 1 10C1 8.155 1.4675 7.53513 2.4025 6.292C4.2692 3.8125 7.3998 1 12 1C16.6002 1 19.7308 3.8125 21.5975 6.292C22.5325 7.53625 23 8.15612 23 10C23 11.845 22.5325 12.4649 21.5975 13.708C19.7308 16.1875 16.6002 19 12 19C7.3998 19 4.2692 16.1875 2.4025 13.708Z" stroke="black" stroke-width="1.5"/>
<path d="M15.3 10C15.3 10.8951 14.9523 11.7536 14.3335 12.3865C13.7146 13.0194 12.8752 13.375 12 13.375C11.1248 13.375 10.2854 13.0194 9.66655 12.3865C9.04768 11.7536 8.7 10.8951 8.7 10C8.7 9.10489 9.04768 8.24645 9.66655 7.61351C10.2854 6.98058 11.1248 6.625 12 6.625C12.8752 6.625 13.7146 6.98058 14.3335 7.61351C14.9523 8.24645 15.3 9.10489 15.3 10Z" stroke="black" stroke-width="1.5"/>
</g>
</svg>
