<svg width="18" height="18" viewBox="0 0 18 18" fill="none" xmlns="http://www.w3.org/2000/svg">
<path fill-rule="evenodd" clip-rule="evenodd" d="M8.7024 0.0790119C8.79304 0.0272341 8.89562 0 9 0C9.10438 0 9.20696 0.0272341 9.2976 0.0790119L17.6976 4.87934C17.7894 4.9318 17.8658 5.0076 17.9189 5.09907C17.972 5.19053 18 5.29441 18 5.40018V6.26423C18 8.91158 17.1377 11.4869 15.5434 13.6003C13.9491 15.7137 11.7098 17.2501 9.1644 17.977C9.05694 18.0077 8.94306 18.0077 8.8356 17.977C6.29038 17.2498 4.05128 15.7132 2.45709 13.5999C0.862892 11.4866 0.000360414 8.91148 0 6.26423V5.40018C3.41124e-05 5.29441 0.0280215 5.19053 0.0811266 5.09907C0.134232 5.0076 0.210568 4.9318 0.3024 4.87934L8.7024 0.0790119ZM8.4864 12.8539L13.668 6.37464L12.732 5.62579L8.3136 11.1474L5.184 8.53959L4.416 9.46125L8.4864 12.8539Z" fill="url(#paint0_linear_783_205)"/>
<defs>
<linearGradient id="paint0_linear_783_205" x1="9" y1="0" x2="9" y2="18" gradientUnits="userSpaceOnUse">
<stop stop-color="#F3530F"/>
<stop offset="1" stop-color="#772E0E"/>
</linearGradient>
</defs>
</svg>
