<svg width="22" height="22" viewBox="0 0 22 22" fill="none" xmlns="http://www.w3.org/2000/svg">
<g clip-path="url(#clip0_783_456)">
<path d="M4.875 10.125C5.33913 10.125 5.78425 10.3094 6.11244 10.6376C6.44063 10.9658 6.625 11.4109 6.625 11.875V13.625H15.375V11.875C15.375 11.4109 15.5594 10.9658 15.8876 10.6376C16.2158 10.3094 16.6609 10.125 17.125 10.125C17.5891 10.125 18.0342 10.3094 18.3624 10.6376C18.6906 10.9658 18.875 11.4109 18.875 11.875V15.375C18.875 15.8391 18.6906 16.2842 18.3624 16.6124C18.0342 16.9406 17.5891 17.125 17.125 17.125H4.875C4.41087 17.125 3.96575 16.9406 3.63756 16.6124C3.30937 16.2842 3.125 15.8391 3.125 15.375V11.875C3.125 11.4109 3.30937 10.9658 3.63756 10.6376C3.96575 10.3094 4.41087 10.125 4.875 10.125Z" stroke="#242424" stroke-width="1.3" stroke-linecap="round" stroke-linejoin="round"/>
<path d="M4.875 10.125V5.75C4.875 5.05381 5.15156 4.38613 5.64384 3.89384C6.13613 3.40156 6.80381 3.125 7.5 3.125H14.5C15.1962 3.125 15.8639 3.40156 16.3562 3.89384C16.8484 4.38613 17.125 5.05381 17.125 5.75V10.125" stroke="#242424" stroke-width="1.3" stroke-linecap="round" stroke-linejoin="round"/>
<path d="M5.75 17.125V18.875" stroke="#242424" stroke-width="1.3" stroke-linecap="round" stroke-linejoin="round"/>
<path d="M16.25 17.125V18.875" stroke="#242424" stroke-width="1.3" stroke-linecap="round" stroke-linejoin="round"/>
</g>
<defs>
<clipPath id="clip0_783_456">
<rect width="21" height="21" fill="white" transform="translate(0.5 0.5)"/>
</clipPath>
</defs>
</svg>
