<svg width="25" height="25" viewBox="0 0 25 25" fill="none" xmlns="http://www.w3.org/2000/svg">
<path d="M20.915 7.31994L15.155 3.28994C13.585 2.18994 11.175 2.24994 9.66499 3.41994L4.65499 7.32994C3.65499 8.10994 2.86499 9.70994 2.86499 10.9699V17.8699C2.86499 20.4199 4.93499 22.4999 7.48499 22.4999H18.265C20.815 22.4999 22.885 20.4299 22.885 17.8799V11.0999C22.885 9.74994 22.015 8.08994 20.915 7.31994ZM13.625 18.4999C13.625 18.9099 13.285 19.2499 12.875 19.2499C12.465 19.2499 12.125 18.9099 12.125 18.4999V15.4999C12.125 15.0899 12.465 14.7499 12.875 14.7499C13.285 14.7499 13.625 15.0899 13.625 15.4999V18.4999Z" fill="black"/>
</svg>
