<svg width="18" height="22" viewBox="0 0 18 22" fill="none" xmlns="http://www.w3.org/2000/svg">
<path fill-rule="evenodd" clip-rule="evenodd" d="M0.988515 0.966548C1.62145 0.347677 2.47989 0 3.375 0H12.375C12.9963 0 13.5 0.492487 13.5 1.1C13.5 1.70751 12.9963 2.2 12.375 2.2H3.375C3.07663 2.2 2.79048 2.31589 2.5795 2.52218C2.36853 2.72847 2.25 3.00826 2.25 3.3V18.7C2.25 18.9917 2.36853 19.2715 2.5795 19.4778C2.79048 19.6841 3.07663 19.8 3.375 19.8H12.375C12.9963 19.8 13.5 20.2925 13.5 20.9C13.5 21.5075 12.9963 22 12.375 22H3.375C2.47989 22 1.62145 21.6523 0.988515 21.0335C0.355579 20.4146 0 19.5752 0 18.7V3.3C0 2.42479 0.355579 1.58542 0.988515 0.966548ZM11.5795 7.37782C11.1402 6.94824 11.1402 6.25176 11.5795 5.82218C12.0188 5.39261 12.7312 5.39261 13.1705 5.82218L17.6705 10.2222C18.1098 10.6518 18.1098 11.3482 17.6705 11.7778L13.1705 16.1778C12.7312 16.6074 12.0188 16.6074 11.5795 16.1778C11.1402 15.7482 11.1402 15.0518 11.5795 14.6222L14.159 12.1H5.625C5.00368 12.1 4.5 11.6075 4.5 11C4.5 10.3925 5.00368 9.9 5.625 9.9H14.159L11.5795 7.37782Z" fill="url(#paint0_linear_783_214)"/>
<defs>
<linearGradient id="paint0_linear_783_214" x1="9" y1="0" x2="9" y2="22" gradientUnits="userSpaceOnUse">
<stop stop-color="#F3530F"/>
<stop offset="1" stop-color="#772E0E"/>
</linearGradient>
</defs>
</svg>
