<svg width="18" height="23" viewBox="0 0 18 23" fill="none" xmlns="http://www.w3.org/2000/svg">
<path d="M15.75 23C16.3467 23 16.919 22.7577 17.341 22.3263C17.7629 21.895 18 21.31 18 20.7V6.9L11.25 0H2.25C1.65326 0 1.08097 0.242321 0.65901 0.673654C0.237053 1.10499 0 1.69 0 2.3V20.7C0 21.31 0.237053 21.895 0.65901 22.3263C1.08097 22.7577 1.65326 23 2.25 23H15.75ZM10.125 2.3L15.75 8.05H10.125V2.3ZM3.375 6.9H6.75V9.2H3.375V6.9ZM3.375 11.5H14.625V13.8H3.375V11.5ZM3.375 16.1H14.625V18.4H3.375V16.1Z" fill="url(#paint0_linear_783_211)"/>
<defs>
<linearGradient id="paint0_linear_783_211" x1="9" y1="0" x2="9" y2="23" gradientUnits="userSpaceOnUse">
<stop stop-color="#F3530F"/>
<stop offset="1" stop-color="#772E0E"/>
</linearGradient>
</defs>
</svg>
