<svg width="21" height="22" viewBox="0 0 21 22" fill="none" xmlns="http://www.w3.org/2000/svg">
<g clip-path="url(#clip0_783_443)">
<path d="M4.375 6.625C4.375 7.55326 4.74375 8.4435 5.40013 9.09987C6.0565 9.75625 6.94674 10.125 7.875 10.125C8.80326 10.125 9.6935 9.75625 10.3499 9.09987C11.0063 8.4435 11.375 7.55326 11.375 6.625C11.375 5.69674 11.0063 4.8065 10.3499 4.15013C9.6935 3.49375 8.80326 3.125 7.875 3.125C6.94674 3.125 6.0565 3.49375 5.40013 4.15013C4.74375 4.8065 4.375 5.69674 4.375 6.625Z" stroke="#242424" stroke-width="1.3" stroke-linecap="round" stroke-linejoin="round"/>
<path d="M2.625 18.875V17.125C2.625 16.1967 2.99375 15.3065 3.65013 14.6501C4.3065 13.9937 5.19674 13.625 6.125 13.625H9.625C10.5533 13.625 11.4435 13.9937 12.0999 14.6501C12.7563 15.3065 13.125 16.1967 13.125 17.125V18.875" stroke="#242424" stroke-width="1.3" stroke-linecap="round" stroke-linejoin="round"/>
<path d="M14 3.23877C14.7529 3.43153 15.4202 3.86938 15.8967 4.48329C16.3732 5.0972 16.6319 5.85225 16.6319 6.62939C16.6319 7.40654 16.3732 8.16159 15.8967 8.7755C15.4202 9.38941 14.7529 9.82726 14 10.02" stroke="#242424" stroke-width="1.3" stroke-linecap="round" stroke-linejoin="round"/>
<path d="M18.375 18.875V17.125C18.3706 16.3525 18.1107 15.6032 17.6359 14.9938C17.161 14.3845 16.498 13.9493 15.75 13.7562" stroke="#242424" stroke-width="1.3" stroke-linecap="round" stroke-linejoin="round"/>
</g>
<defs>
<clipPath id="clip0_783_443">
<rect width="21" height="21" fill="white" transform="translate(0 0.5)"/>
</clipPath>
</defs>
</svg>
