<svg width="31" height="31" viewBox="0 0 31 31" fill="none" xmlns="http://www.w3.org/2000/svg">
<path d="M15.5039 0H15.4961C6.94981 0 0 6.95175 0 15.5C0 18.8906 1.09275 22.0333 2.95081 24.5849L1.01912 30.3432L6.97694 28.4386C9.42788 30.0623 12.3516 31 15.5039 31C24.0502 31 31 24.0463 31 15.5C31 6.95369 24.0502 0 15.5039 0Z" fill="#4CAF50"/>
<path d="M24.5229 21.8879C24.149 22.9439 22.6649 23.8196 21.4811 24.0754C20.6712 24.2478 19.6133 24.3854 16.0522 22.909C11.4971 21.0219 8.56375 16.3932 8.33512 16.0929C8.11619 15.7926 6.4945 13.6419 6.4945 11.4177C6.4945 9.19344 7.62406 8.11038 8.07938 7.64538C8.45331 7.26369 9.07137 7.08931 9.66425 7.08931C9.85606 7.08931 10.0285 7.099 10.1835 7.10675C10.6388 7.12612 10.8674 7.15325 11.1677 7.87206C11.5417 8.773 12.4523 10.9973 12.5608 11.2259C12.6712 11.4545 12.7817 11.7645 12.6267 12.0648C12.4814 12.3748 12.3535 12.5124 12.1249 12.7759C11.8962 13.0394 11.6792 13.2409 11.4506 13.5238C11.2414 13.7698 11.005 14.0333 11.2685 14.4886C11.532 14.9342 12.4426 16.4203 13.7834 17.6138C15.5136 19.1541 16.9163 19.6462 17.4181 19.8555C17.7921 20.0105 18.2377 19.9737 18.5109 19.6831C18.8577 19.3091 19.2859 18.6891 19.7218 18.0788C20.0318 17.6409 20.4232 17.5867 20.8339 17.7417C21.2524 17.887 23.467 18.9817 23.9223 19.2084C24.3776 19.437 24.6779 19.5455 24.7884 19.7373C24.8969 19.9291 24.8969 20.8301 24.5229 21.8879Z" fill="#FAFAFA"/>
</svg>
