<svg width="21" height="19" viewBox="0 0 21 19" fill="none" xmlns="http://www.w3.org/2000/svg">
<path d="M17.8751 10.0719L10.3751 17.4999L2.87506 10.0719C2.38036 9.59055 1.9907 9.01195 1.7306 8.37257C1.47051 7.73319 1.34562 7.04688 1.36379 6.35687C1.38197 5.66685 1.54282 4.98807 1.83621 4.36327C2.12961 3.73847 2.54919 3.18119 3.06854 2.72651C3.58789 2.27184 4.19576 1.92962 4.85387 1.72141C5.51197 1.51321 6.20606 1.44352 6.89243 1.51673C7.57879 1.58995 8.24256 1.80449 8.84193 2.14684C9.44131 2.48919 9.96331 2.95193 10.3751 3.50593C10.7886 2.95595 11.3112 2.49725 11.9102 2.15854C12.5091 1.81982 13.1716 1.60838 13.856 1.53745C14.5404 1.46652 15.2321 1.53763 15.8878 1.74632C16.5435 1.95502 17.1491 2.29681 17.6666 2.7503C18.1841 3.20379 18.6025 3.75922 18.8955 4.38182C19.1885 5.00443 19.3498 5.68082 19.3694 6.36864C19.3889 7.05647 19.2663 7.74093 19.0092 8.37918C18.7521 9.01744 18.366 9.59576 17.8751 10.0779" stroke="black" stroke-width="1.5" stroke-linecap="round" stroke-linejoin="round"/>
</svg>
